<?xml version="1.0" encoding="UTF-8"?>
<svg width="100px" height="125px" viewBox="0 0 100 125" version="1.1" xmlns="http://www.w3.org/2000/svg" xmlns:xlink="http://www.w3.org/1999/xlink">
    <!-- Generator: Sketch 55.2 (78181) - https://sketchapp.com -->
    <title>scorm</title>
    <desc>Created with Sketch.</desc>
    <defs>
        <path d="M3.8458278,-1.55376046e-16 L76.1541722,1.55376046e-16 C77.4914503,-9.02779573e-17 77.9763797,0.139238417 78.4652686,0.400699056 C78.9541574,0.662159695 79.3378403,1.04584256 79.5993009,1.53473144 C79.8607616,2.02362033 80,2.50854969 80,3.8458278 L80,47.1541722 C80,48.4914503 79.8607616,48.9763797 79.5993009,49.4652686 C79.3378403,49.9541574 78.9541574,50.3378403 78.4652686,50.5993009 C77.9763797,50.8607616 77.4914503,51 76.1541722,51 L3.8458278,51 C2.50854969,51 2.02362033,50.8607616 1.53473144,50.5993009 C1.04584256,50.3378403 0.662159695,49.9541574 0.400699056,49.4652686 C0.139238417,48.9763797 6.01853049e-17,48.4914503 -1.03584031e-16,47.1541722 L1.03584031e-16,3.8458278 C-6.01853049e-17,2.50854969 0.139238417,2.02362033 0.400699056,1.53473144 C0.662159695,1.04584256 1.04584256,0.662159695 1.53473144,0.400699056 C2.02362033,0.139238417 2.50854969,9.02779573e-17 3.8458278,-1.55376046e-16 Z" id="path-1"></path>
        <path d="M7,14 C3.13400675,14 0,10.8659932 0,7 C0,3.13400675 3.13400675,0 7,0 C10.8659932,0 14,3.13400675 14,7 C14,10.8659932 10.8659932,14 7,14 Z M7,12 C9.76142375,12 12,9.76142375 12,7 C12,4.23857625 9.76142375,2 7,2 C4.23857625,2 2,4.23857625 2,7 C2,9.76142375 4.23857625,12 7,12 Z M5,4 L10,7 L5,10 L5,4 Z" id="path-3"></path>
    </defs>
    <g id="scorm" stroke="none" stroke-width="1" fill="none" fill-rule="evenodd">
        <g id="Group-2" transform="translate(10.000000, 10.000000)">
            <g id="Group" opacity="0.14" transform="translate(0.000000, 59.000000)" fill="#000000">
                <path d="M1,0 L35,0 C35.5522847,-1.01453063e-16 36,0.44771525 36,1 C36,1.55228475 35.5522847,2 35,2 L1,2 C0.44771525,2 6.76353751e-17,1.55228475 0,1 C-6.76353751e-17,0.44771525 0.44771525,1.01453063e-16 1,0 Z" id="Rectangle-Copy-3"></path>
                <path d="M1,5 L35,5 C35.5522847,5 36,5.44771525 36,6 C36,6.55228475 35.5522847,7 35,7 L1,7 C0.44771525,7 6.76353751e-17,6.55228475 0,6 C-6.76353751e-17,5.44771525 0.44771525,5 1,5 Z" id="Rectangle-Copy-4"></path>
                <path d="M1,10 L35,10 C35.5522847,10 36,10.4477153 36,11 C36,11.5522847 35.5522847,12 35,12 L1,12 C0.44771525,12 6.76353751e-17,11.5522847 0,11 C-6.76353751e-17,10.4477153 0.44771525,10 1,10 Z" id="Rectangle-Copy-5"></path>
                <path d="M1,15 L35,15 C35.5522847,15 36,15.4477153 36,16 C36,16.5522847 35.5522847,17 35,17 L1,17 C0.44771525,17 6.76353751e-17,16.5522847 0,16 C-6.76353751e-17,15.4477153 0.44771525,15 1,15 Z" id="Rectangle-Copy-6"></path>
                <path d="M1,35 L35,35 C35.5522847,35 36,35.4477153 36,36 C36,36.5522847 35.5522847,37 35,37 L1,37 C0.44771525,37 6.76353751e-17,36.5522847 0,36 C-6.76353751e-17,35.4477153 0.44771525,35 1,35 Z" id="Rectangle-Copy-10"></path>
                <path d="M42,35 L76,35 C76.5522847,35 77,35.4477153 77,36 C77,36.5522847 76.5522847,37 76,37 L42,37 C41.4477153,37 41,36.5522847 41,36 C41,35.4477153 41.4477153,35 42,35 Z" id="Rectangle-Copy-12"></path>
                <path d="M1,20 L35,20 C35.5522847,20 36,20.4477153 36,21 C36,21.5522847 35.5522847,22 35,22 L1,22 C0.44771525,22 6.76353751e-17,21.5522847 0,21 C-6.76353751e-17,20.4477153 0.44771525,20 1,20 Z" id="Rectangle-Copy-7"></path>
                <path d="M1,40 L35,40 C35.5522847,40 36,40.4477153 36,41 C36,41.5522847 35.5522847,42 35,42 L1,42 C0.44771525,42 6.76353751e-17,41.5522847 0,41 C-6.76353751e-17,40.4477153 0.44771525,40 1,40 Z" id="Rectangle-Copy-11"></path>
                <path d="M42,40 L76,40 C76.5522847,40 77,40.4477153 77,41 C77,41.5522847 76.5522847,42 76,42 L42,42 C41.4477153,42 41,41.5522847 41,41 C41,40.4477153 41.4477153,40 42,40 Z" id="Rectangle-Copy-13"></path>
                <path d="M1,45 L17,45 C17.5522847,45 18,45.4477153 18,46 C18,46.5522847 17.5522847,47 17,47 L1,47 C0.44771525,47 6.76353751e-17,46.5522847 0,46 C-6.76353751e-17,45.4477153 0.44771525,45 1,45 Z" id="Rectangle-Copy-11"></path>
                <path d="M42,45 L58,45 C58.5522847,45 59,45.4477153 59,46 C59,46.5522847 58.5522847,47 58,47 L42,47 C41.4477153,47 41,46.5522847 41,46 C41,45.4477153 41.4477153,45 42,45 Z" id="Rectangle-Copy-13"></path>
                <path d="M1,25 L17,25 C17.5522847,25 18,25.4477153 18,26 C18,26.5522847 17.5522847,27 17,27 L1,27 C0.44771525,27 6.76353751e-17,26.5522847 0,26 C-6.76353751e-17,25.4477153 0.44771525,25 1,25 Z" id="Rectangle-Copy-8"></path>
            </g>
            <g id="Rectangle-48-+-Rectangle-46-Mask-Copy">
                <mask id="mask-2" fill="white">
                    <use xlink:href="#path-1"></use>
                </mask>
                <use id="Mask" fill-opacity="0.06" fill="#000000" xlink:href="#path-1"></use>
                <path d="M11,73 L-10,73 L28,27 L38.224456,39.3769731 L59.5818057,13 L84,43.0045135 L84,69.2222303 C84,71.3086349 82.6334503,73 80.9477257,73 L11,73 Z" id="Combined-Shape" fill="#000000" opacity="0.05" mask="url(#mask-2)"></path>
            </g>
            <circle id="Oval-16-Copy-2" fill="#000000" opacity="0.07" cx="16.5" cy="15.5" r="6.5"></circle>
            <path d="M44.8458278,59 L76.1541722,59 C77.4914503,59 77.9763797,59.1392384 78.4652686,59.4006991 C78.9541574,59.6621597 79.3378403,60.0458426 79.5993009,60.5347314 C79.8607616,61.0236203 80,61.5085497 80,62.8458278 L80,82.1541722 C80,83.4914503 79.8607616,83.9763797 79.5993009,84.4652686 C79.3378403,84.9541574 78.9541574,85.3378403 78.4652686,85.5993009 C77.9763797,85.8607616 77.4914503,86 76.1541722,86 L44.8458278,86 C43.5085497,86 43.0236203,85.8607616 42.5347314,85.5993009 C42.0458426,85.3378403 41.6621597,84.9541574 41.4006991,84.4652686 C41.1392384,83.9763797 41,83.4914503 41,82.1541722 L41,62.8458278 C41,61.5085497 41.1392384,61.0236203 41.4006991,60.5347314 C41.6621597,60.0458426 42.0458426,59.6621597 42.5347314,59.4006991 C43.0236203,59.1392384 43.5085497,59 44.8458278,59 Z" id="Rectangle-Copy-9" fill-opacity="0.06" fill="#000000"></path>
            <g id="16px---Video" opacity="0.22" transform="translate(52.000000, 64.000000)">
                <g id="video">
                    <g id="Normal" transform="translate(1.000000, 1.000000)">
                        <mask id="mask-4" fill="white">
                            <use xlink:href="#path-3"></use>
                        </mask>
                        <use id="Mask" fill="#000000" xlink:href="#path-3"></use>
                        <g id="Dark" mask="url(#mask-4)" fill="#494949">
                            <g transform="translate(-2.000000, -2.000000)" id="Rectangle-5">
                                <rect x="0" y="0" width="18" height="18"></rect>
                            </g>
                        </g>
                    </g>
                </g>
            </g>
        </g>
    </g>
</svg>